<svg xmlns="http://www.w3.org/2000/svg" xmlns:xlink="http://www.w3.org/1999/xlink" width="21.165" height="21.165" viewBox="0 0 21.165 21.165"><defs><style>.a{clip-path:url(#a);}</style><clipPath id="a"><path d="M21.165,0V21.165H0V0Z"/></clipPath></defs><g class="a"><path d="M12.819,4a8.819,8.819,0,1,0,8.819,8.819A8.816,8.816,0,0,0,12.819,4Zm0,15.874a7.055,7.055,0,1,1,7.055-7.055A7.065,7.065,0,0,1,12.819,19.874Zm-1.693-8.056a2.323,2.323,0,0,1,.265-.767,1.533,1.533,0,0,1,.52-.542,1.515,1.515,0,0,1,.789-.2,1.476,1.476,0,0,1,.573.115,1.392,1.392,0,0,1,.754.785,1.72,1.72,0,0,1,.119.564h1.579a3.155,3.155,0,0,0-.243-1.138,2.639,2.639,0,0,0-.622-.891,2.733,2.733,0,0,0-.952-.578,3.53,3.53,0,0,0-1.23-.207,3.491,3.491,0,0,0-1.495.3,2.981,2.981,0,0,0-1.058.811,3.411,3.411,0,0,0-.631,1.195,4.977,4.977,0,0,0-.2,1.442v.243A4.986,4.986,0,0,0,9.5,14.389a3.353,3.353,0,0,0,.631,1.191,3,3,0,0,0,1.063.807,3.526,3.526,0,0,0,1.5.3,3.264,3.264,0,0,0,1.164-.2,3.1,3.1,0,0,0,.952-.56,2.692,2.692,0,0,0,.653-.829,2.439,2.439,0,0,0,.265-1.014H14.146a1.256,1.256,0,0,1-.132.511,1.232,1.232,0,0,1-.317.4,1.483,1.483,0,0,1-.463.26,1.631,1.631,0,0,1-.534.088,1.539,1.539,0,0,1-.789-.207,1.557,1.557,0,0,1-.525-.547,2.313,2.313,0,0,1-.265-.772,5.2,5.2,0,0,1-.066-.869V12.7a5.29,5.29,0,0,1,.071-.882Z" transform="translate(-2.236 -2.236)"/></g></svg>