<svg xmlns="http://www.w3.org/2000/svg" width="37.909" height="38.688" viewBox="0 0 37.909 38.688"><defs><style>.a{fill-rule:evenodd;}</style></defs><path class="a" d="M37.909,19.344A19.152,19.152,0,0,0,18.955,0,19.152,19.152,0,0,0,0,19.344,19.152,19.152,0,0,0,18.955,38.688,19.152,19.152,0,0,0,37.909,19.344Zm-2.275,0A16.854,16.854,0,0,0,18.955,2.321,16.854,16.854,0,0,0,2.275,19.344a16.854,16.854,0,0,0,16.68,17.023A16.854,16.854,0,0,0,35.635,19.344Zm-7.757,4.461a2.354,2.354,0,0,1-2,1.854,60.854,60.854,0,0,1-6.925.261,60.851,60.851,0,0,1-6.925-.261,2.353,2.353,0,0,1-2-1.854,20.633,20.633,0,0,1-.322-4.461,20.647,20.647,0,0,1,.326-4.461,2.353,2.353,0,0,1,2-1.854,60.856,60.856,0,0,1,6.925-.261,60.851,60.851,0,0,1,6.925.261,2.353,2.353,0,0,1,2,1.854,20.631,20.631,0,0,1,.32,4.461A20.643,20.643,0,0,1,27.877,23.805ZM17.29,15.862l5.118,3.015L17.29,21.893Zm0,0"/></svg>