<svg xmlns="http://www.w3.org/2000/svg" width="38.428" height="38.429" viewBox="0 0 38.428 38.429"><defs><style>.a{fill:#010101;fill-rule:evenodd;}</style></defs><path class="a" d="M34,32.269v-7.5c0-4.019-2.146-5.889-5.006-5.889a4.316,4.316,0,0,0-3.919,2.161V19.186H20.724c.058,1.228,0,13.083,0,13.083h4.349V24.962a2.965,2.965,0,0,1,.143-1.06,2.379,2.379,0,0,1,2.23-1.59c1.574,0,2.2,1.2,2.2,2.958v7H34ZM16.143,17.4a2.268,2.268,0,1,0,.029-4.521,2.267,2.267,0,1,0-.056,4.521Zm7.071,25.028A19.214,19.214,0,1,1,42.428,23.214,19.215,19.215,0,0,1,23.214,42.428Zm-4.9-10.16V19.186H13.969V32.269Z" transform="translate(-4 -4)"/></svg>