<svg xmlns="http://www.w3.org/2000/svg" width="37.909" height="37.909" viewBox="0 0 37.909 37.909"><path d="M22.678,5.157A18.955,18.955,0,1,0,41.632,24.112,18.956,18.956,0,0,0,22.678,5.157ZM32.226,20.29c.01.2.014.41.014.618A13.586,13.586,0,0,1,11.327,32.354a9.77,9.77,0,0,0,1.139.066A9.584,9.584,0,0,0,18.4,30.376a4.784,4.784,0,0,1-4.462-3.318,4.665,4.665,0,0,0,.9.085,4.747,4.747,0,0,0,1.259-.167,4.78,4.78,0,0,1-3.833-4.683c0-.021,0-.041,0-.062a4.761,4.761,0,0,0,2.164.6,4.783,4.783,0,0,1-1.479-6.378,13.562,13.562,0,0,0,9.847,4.99,4.78,4.78,0,0,1,8.139-4.357,9.541,9.541,0,0,0,3.034-1.159,4.79,4.79,0,0,1-2.1,2.643,9.55,9.55,0,0,0,2.744-.752A9.651,9.651,0,0,1,32.226,20.29Z" transform="translate(-3.723 -5.157)"/></svg>