<svg xmlns="http://www.w3.org/2000/svg" width="38.325" height="38.325" viewBox="0 0 38.325 38.325"><circle cx="3.427" cy="3.427" r="3.427" transform="translate(15.579 15.891)"/><path d="M30,19.2H21.428a4.257,4.257,0,0,0-3.038,1.091A4.257,4.257,0,0,0,17.3,23.328V31.9a4.294,4.294,0,0,0,1.168,3.116A4.391,4.391,0,0,0,21.506,36.1H30a4.257,4.257,0,0,0,3.038-1.091A3.99,3.99,0,0,0,34.2,31.975V23.406a4.391,4.391,0,0,0-1.091-3.038A4.171,4.171,0,0,0,30,19.2ZM25.713,32.91a5.3,5.3,0,1,1,0-10.594,5.3,5.3,0,1,1,0,10.594Zm5.531-9.581a1.246,1.246,0,1,1,1.246-1.246A1.23,1.23,0,0,1,31.243,23.328Z" transform="translate(-6.706 -8.295)"/><path d="M22.862,5.2A19.162,19.162,0,1,0,42.025,24.362,19.149,19.149,0,0,0,22.862,5.2Zm10.2,23.68a6.175,6.175,0,0,1-1.714,4.44,6.062,6.062,0,0,1-4.362,1.636H18.5a6.062,6.062,0,0,1-4.362-1.636,5.869,5.869,0,0,1-1.714-4.44V20.312A5.765,5.765,0,0,1,18.5,14.236h8.569a5.745,5.745,0,0,1,6,6.076V28.88Z" transform="translate(-3.7 -5.2)"/></svg>